<svg viewBox="20 20 300 380" role="img" xmlns="http://www.w3.org/2000/svg">
  <title>Tessera parchment logo</title>
  <desc>Parchment Tessera brand treatment with a glass tessera mark and calligraphic T.</desc>
  <rect x="20" y="20" width="300" height="380" rx="14" fill="#ECE0C7"/>
  <g transform="translate(170 175)">
    <polygon points="-115,-93 -97,-75 -115,-57 -133,-75" fill="#FFFFFF" fill-opacity="0.06" stroke="#FFFFFF" stroke-opacity="0.18" stroke-width="0.4"/>
    <polygon points="115,-93 133,-75 115,-57 97,-75" fill="#FFFFFF" fill-opacity="0.06" stroke="#FFFFFF" stroke-opacity="0.18" stroke-width="0.4"/>
    <polygon points="-115,57 -97,75 -115,93 -133,75" fill="#FFFFFF" fill-opacity="0.06" stroke="#FFFFFF" stroke-opacity="0.18" stroke-width="0.4"/>
    <polygon points="115,57 133,75 115,93 97,75" fill="#FFFFFF" fill-opacity="0.06" stroke="#FFFFFF" stroke-opacity="0.18" stroke-width="0.4"/>
    <polygon points="-94,-26 -68,0 -94,26 -120,0" fill="#FFFFFF" fill-opacity="0.13" stroke="#FFFFFF" stroke-opacity="0.30" stroke-width="0.5"/>
    <polyline points="-120,0 -94,-26 -68,0" fill="none" stroke="#FFFFFF" stroke-opacity="0.45" stroke-width="0.7" stroke-linecap="round" stroke-linejoin="round"/>
    <polygon points="94,-26 120,0 94,26 68,0" fill="#FFFFFF" fill-opacity="0.13" stroke="#FFFFFF" stroke-opacity="0.30" stroke-width="0.5"/>
    <polyline points="68,0 94,-26 120,0" fill="none" stroke="#FFFFFF" stroke-opacity="0.45" stroke-width="0.7" stroke-linecap="round" stroke-linejoin="round"/>
    <polygon points="0,-120 26,-94 0,-68 -26,-94" fill="#FFFFFF" fill-opacity="0.13" stroke="#FFFFFF" stroke-opacity="0.30" stroke-width="0.5"/>
    <polyline points="-26,-94 0,-120 26,-94" fill="none" stroke="#FFFFFF" stroke-opacity="0.45" stroke-width="0.7" stroke-linecap="round" stroke-linejoin="round"/>
    <polygon points="0,68 26,94 0,120 -26,94" fill="#FFFFFF" fill-opacity="0.13" stroke="#FFFFFF" stroke-opacity="0.30" stroke-width="0.5"/>
    <polyline points="-26,94 0,68 26,94" fill="none" stroke="#FFFFFF" stroke-opacity="0.30" stroke-width="0.7" stroke-linecap="round" stroke-linejoin="round"/>
    <polygon points="-48,-90 -6,-48 -48,-6 -90,-48" fill="#FFFFFF" fill-opacity="0.30" stroke="#FFFFFF" stroke-opacity="0.45" stroke-width="0.6"/>
    <polyline points="-90,-48 -48,-90 -6,-48" fill="none" stroke="#FFFFFF" stroke-opacity="0.85" stroke-width="1.1" stroke-linecap="round" stroke-linejoin="round"/>
    <polygon points="48,-90 90,-48 48,-6 6,-48" fill="#FFFFFF" fill-opacity="0.30" stroke="#FFFFFF" stroke-opacity="0.45" stroke-width="0.6"/>
    <polyline points="6,-48 48,-90 90,-48" fill="none" stroke="#FFFFFF" stroke-opacity="0.85" stroke-width="1.1" stroke-linecap="round" stroke-linejoin="round"/>
    <polygon points="-48,6 -6,48 -48,90 -90,48" fill="#FFFFFF" fill-opacity="0.30" stroke="#FFFFFF" stroke-opacity="0.45" stroke-width="0.6"/>
    <polyline points="-90,48 -48,6 -6,48" fill="none" stroke="#FFFFFF" stroke-opacity="0.55" stroke-width="1.0" stroke-linecap="round" stroke-linejoin="round"/>
    <polygon points="48,6 90,48 48,90 6,48" fill="#FFFFFF" fill-opacity="0.30" stroke="#FFFFFF" stroke-opacity="0.45" stroke-width="0.6"/>
    <polyline points="6,48 48,6 90,48" fill="none" stroke="#FFFFFF" stroke-opacity="0.55" stroke-width="1.0" stroke-linecap="round" stroke-linejoin="round"/>
    <polygon points="0,-42 42,0 0,42 -42,0" fill="#FFFFFF" fill-opacity="0.55" stroke="#FFFFFF" stroke-opacity="0.55" stroke-width="0.8"/>
    <polygon points="-2,-30 22,-6 -2,18 -26,-6" fill="#FFFFFF" fill-opacity="0.30"/>
    <polyline points="-42,0 0,-42 42,0" fill="none" stroke="#FFFFFF" stroke-opacity="0.98" stroke-width="1.7" stroke-linecap="round" stroke-linejoin="round"/>
    <polyline points="42,0 0,42 -42,0" fill="none" stroke="#FFFFFF" stroke-opacity="0.32" stroke-width="1.0" stroke-linecap="round" stroke-linejoin="round"/>
    <circle cx="14" cy="-22" r="1.8" fill="#FFFFFF"/>
    <path d="M -16,-16 L 16,-16 L 16,-9 L 13,-9 L 13,-12 L 3.5,-12 L 3.5,12 L 8,16 L -8,16 L -3.5,12 L -3.5,-12 L -13,-12 L -13,-9 L -16,-9 Z" fill="#1A1D24"/>
  </g>
  <text x="170" y="350" text-anchor="middle" fill="#1A1D24" style="font-family: Inter, ui-sans-serif, system-ui, -apple-system, BlinkMacSystemFont, 'Segoe UI', sans-serif; font-size: 26px; font-weight: 400; letter-spacing: 0.08em">tessera</text>
</svg>
